<svg id="Layer_1" data-name="Layer 1" xmlns="http://www.w3.org/2000/svg" viewBox="0 0 911.91 835.55"><path d="M865.48,284.65c-63.22-44.75-146.22-47.6-219.66-31.5C490,287.64,365.19,436.41,367.93,597.51c11.7.16,23.09-4.33,34.09-7.94,2.33-.85,2.93-2.69,3-4.69.11-9.26.14-18.5,1.09-27.73,5.09-45.07,19.53-88.85,41.39-128.55,47.74-84.77,129.6-153.42,227.65-168,68-11.54,146.22,6.69,187.69,65.31,5.7,6.45,8.51,18.5,16.89,21.4,9,1.07,16.76-1.32,22.7-8.53C912.24,323,877.18,293.35,865.48,284.65Z" transform="translate(-0.42 -0.01)"/><path d="M469.65,590.26c77.51-47.62,72.69-127.75,13.71-188.93-7.75,10.28-15.13,20.48-21.23,31.48C623.41,639,151.16,694,37.64,505.94c-4-5.07-5.82-14.9-11.54-17.48-6.16-.68-12.34-.85-17.81,2.8-23,13.42,10.76,45.23,21.94,56.91,49.33,44.76,113.62,70,178.9,80.08C296.38,641.07,392.24,636.1,469.65,590.26Z" transform="translate(-0.42 -0.01)"/><path d="M911.6,701.74c-11.68-10.46-24.7,15.8-33.3,21.79-28.47,27.77-61.1,51.33-96.92,68.5-148.67,70.22-336,14-371.9-158.62L374.33,642c39,179.39,256.39,235.26,408.11,162.69,35.19-16.88,69.09-37,97.65-63.86C886.49,733.16,917.44,710.46,911.6,701.74Z" transform="translate(-0.42 -0.01)"/><path d="M137.4,32.05C367.64,16.05,599,25,829.52,27c13.14.33,26.11,1,38.67-3.59C874.87,21,886,14.8,884.35,6c-1.43-7.71-11-5.78-17-5.71C631.7,12,395.83,10.72,160,8.22c-8.84-.07-18-.07-26,3.55C121,17,118.49,34.82,137.4,32.05Z" transform="translate(-0.42 -0.01)"/><path d="M431.71,200.91C453.87,152.45,493,114.14,536.42,84.35c13.17-9.23,27.67-16.5,40.58-26.14,2-1.48,1.32-3.67.88-5.52-1.44-4.31-7.08-1.68-10.09-.67-116.11,58.72-246.25,204.21-144,331.23l24-29.25C415.78,308.82,406.94,251.63,431.71,200.91Z" transform="translate(-0.42 -0.01)"/></svg>